<svg width="47" height="47" viewBox="0 0 47 47" fill="none" xmlns="http://www.w3.org/2000/svg">
<circle cx="23.4985" cy="23.5" r="23" fill="white" stroke="#FAFAFA"/>
<g clip-path="url(#clip0_528_278)">
<path d="M15.9985 20C15.9985 18.9391 16.42 17.9217 17.1701 17.1716C17.9203 16.4214 18.9377 16 19.9985 16H27.9985C29.0594 16 30.0768 16.4214 30.827 17.1716C31.5771 17.9217 31.9985 18.9391 31.9985 20V28C31.9985 29.0609 31.5771 30.0783 30.827 30.8284C30.0768 31.5786 29.0594 32 27.9985 32H19.9985C18.9377 32 17.9203 31.5786 17.1701 30.8284C16.42 30.0783 15.9985 29.0609 15.9985 28V20Z" stroke="#181717" stroke-width="1.5" stroke-linecap="round" stroke-linejoin="round"/>
<path d="M20.9985 24C20.9985 24.7956 21.3146 25.5587 21.8772 26.1213C22.4398 26.6839 23.2029 27 23.9985 27C24.7942 27 25.5572 26.6839 26.1199 26.1213C26.6825 25.5587 26.9985 24.7956 26.9985 24C26.9985 23.2044 26.6825 22.4413 26.1199 21.8787C25.5572 21.3161 24.7942 21 23.9985 21C23.2029 21 22.4398 21.3161 21.8772 21.8787C21.3146 22.4413 20.9985 23.2044 20.9985 24Z" stroke="#181717" stroke-width="1.5" stroke-linecap="round" stroke-linejoin="round"/>
<path d="M28.4985 19.5V19.51" stroke="#181717" stroke-width="1.5" stroke-linecap="round" stroke-linejoin="round"/>
</g>
<defs>
<clipPath id="clip0_528_278">
<rect width="24" height="24" fill="white" transform="translate(11.9985 12)"/>
</clipPath>
</defs>
</svg>
