<svg width="80" height="80" viewBox="0 0 80 80" fill="none" xmlns="http://www.w3.org/2000/svg">
<rect width="80" height="80" fill="white"/>
<g clip-path="url(#clip0_631_5124)">
<path d="M24.25 52.25H24.2667" stroke="#181717" stroke-width="3.5" stroke-linecap="round" stroke-linejoin="round"/>
<path d="M31.25 52.25C31.25 50.3935 30.5125 48.613 29.1997 47.3003C27.887 45.9875 26.1065 45.25 24.25 45.25" stroke="#181717" stroke-width="3.5" stroke-linecap="round" stroke-linejoin="round"/>
<path d="M38.25 52.25C38.25 48.537 36.775 44.976 34.1495 42.3505C31.524 39.725 27.963 38.25 24.25 38.25" stroke="#181717" stroke-width="3.5" stroke-linecap="round" stroke-linejoin="round"/>
<path d="M45.2496 52.25H50.4996C51.892 52.25 53.2274 51.6969 54.2119 50.7123C55.1965 49.7277 55.7496 48.3924 55.7496 47V33C55.7496 31.6076 55.1965 30.2723 54.2119 29.2877C53.2274 28.3031 51.892 27.75 50.4996 27.75H29.4996C28.4224 27.7602 27.3745 28.1015 26.4979 28.7277C25.6214 29.3538 24.9586 30.2344 24.5996 31.25" stroke="#181717" stroke-width="3.5" stroke-linecap="round" stroke-linejoin="round"/>
</g>
<defs>
<clipPath id="clip0_631_5124">
<rect width="42" height="42" fill="white" transform="translate(19 19)"/>
</clipPath>
</defs>
</svg>
