<svg width="80" height="80" viewBox="0 0 80 80" fill="none" xmlns="http://www.w3.org/2000/svg">
<rect width="80" height="80" fill="white"/>
<g clip-path="url(#clip0_631_5184)">
<path d="M29.5 34.75H40" stroke="#181717" stroke-width="3.5" stroke-linecap="round" stroke-linejoin="round"/>
<path d="M26 27.75H33" stroke="#181717" stroke-width="3.5" stroke-linecap="round" stroke-linejoin="round"/>
<path d="M29.5 27.75V47C29.5 47.4641 29.6844 47.9092 30.0126 48.2374C30.3408 48.5656 30.7859 48.75 31.25 48.75H40" stroke="#181717" stroke-width="3.5" stroke-linecap="round" stroke-linejoin="round"/>
<path d="M40 33C40 32.5359 40.1844 32.0908 40.5126 31.7626C40.8408 31.4344 41.2859 31.25 41.75 31.25H52.25C52.7141 31.25 53.1592 31.4344 53.4874 31.7626C53.8156 32.0908 54 32.5359 54 33V36.5C54 36.9641 53.8156 37.4092 53.4874 37.7374C53.1592 38.0656 52.7141 38.25 52.25 38.25H41.75C41.2859 38.25 40.8408 38.0656 40.5126 37.7374C40.1844 37.4092 40 36.9641 40 36.5V33Z" stroke="#181717" stroke-width="3.5" stroke-linecap="round" stroke-linejoin="round"/>
<path d="M40 47C40 46.5359 40.1844 46.0908 40.5126 45.7626C40.8408 45.4344 41.2859 45.25 41.75 45.25H52.25C52.7141 45.25 53.1592 45.4344 53.4874 45.7626C53.8156 46.0908 54 46.5359 54 47V50.5C54 50.9641 53.8156 51.4092 53.4874 51.7374C53.1592 52.0656 52.7141 52.25 52.25 52.25H41.75C41.2859 52.25 40.8408 52.0656 40.5126 51.7374C40.1844 51.4092 40 50.9641 40 50.5V47Z" stroke="#181717" stroke-width="3.5" stroke-linecap="round" stroke-linejoin="round"/>
</g>
<defs>
<clipPath id="clip0_631_5184">
<rect width="42" height="42" fill="white" transform="translate(19 19)"/>
</clipPath>
</defs>
</svg>
