<svg width="38" height="38" viewBox="0 0 38 38" fill="none" xmlns="http://www.w3.org/2000/svg">
<g clip-path="url(#clip0_528_494)">
<path d="M20.4439 24.4718L17.8599 21.8878C17.5559 21.5838 17.0999 21.5838 16.7959 21.8878C16.4919 22.1918 16.4919 22.6478 16.7959 22.9518L19.9119 26.0678C20.0639 26.2198 20.2919 26.2958 20.4439 26.2958C20.6719 26.2958 20.8239 26.2198 20.9759 26.0678L27.2839 19.7598C27.5879 19.4558 27.5879 18.9998 27.2839 18.6958C26.9799 18.3918 26.5239 18.3918 26.2199 18.6958L20.4439 24.4718Z" fill="white"/>
<path d="M36.1761 31.0838L31.0081 25.9158C31.3881 25.0038 31.6921 24.0158 31.7681 23.0278C31.9961 20.4438 31.2361 17.8598 29.5641 15.8838C28.6521 14.7438 27.5121 13.9078 26.2201 13.2998V9.34776C26.2201 7.52377 24.7001 6.00377 22.8001 6.00377H20.7481V4.93977C20.7481 3.79977 19.8361 2.88777 18.6201 2.88777H16.3401C15.9601 1.67177 14.8201 0.759766 13.5281 0.759766C12.1601 0.759766 11.0961 1.67177 10.7161 2.81177H8.4361C7.2201 2.88777 6.3081 3.79977 6.3081 4.93977V6.00377H4.2561C2.3561 6.00377 0.836103 7.52377 0.836103 9.34776V33.8958C0.760103 35.7198 2.3561 37.2398 4.2561 37.2398H22.8001C24.7001 37.2398 26.2201 35.7198 26.2201 33.8198V31.3878L31.0081 36.1758C32.3761 37.5438 34.6561 37.6198 36.1001 36.1758C37.5441 34.7318 37.6201 32.4518 36.1761 31.0838ZM28.4241 16.7958C29.7921 18.4678 30.4761 20.6718 30.2481 22.7998C29.9441 25.9158 27.9681 28.4998 25.2321 29.6398C25.2321 29.6398 25.2321 29.6398 25.1561 29.6398C23.9401 30.1718 22.6481 30.3238 21.2041 30.2478C16.6441 29.7918 13.3761 25.7638 13.8321 21.2038C14.0601 19.0758 15.0481 17.1758 16.5681 15.8078C16.5681 15.8078 16.5681 15.8078 16.6441 15.7318C18.3161 14.2878 20.5961 13.5278 22.8761 13.7558C23.7121 13.8318 24.4721 14.0598 25.2321 14.3638C26.4481 14.9718 27.5121 15.7318 28.4241 16.7958ZM7.8281 4.93977C7.8281 4.63577 8.1321 4.40777 8.4361 4.40777H11.4001C11.8561 4.40777 12.1601 4.10377 12.1601 3.64777C12.1601 2.88777 12.7681 2.35577 13.5281 2.35577C14.2881 2.35577 14.9721 2.96377 14.9721 3.64777C14.9721 4.10377 15.2761 4.40777 15.7321 4.40777H18.6961C19.0001 4.40777 19.3041 4.63577 19.3041 4.93977V8.58777C19.3041 8.89176 19.0001 9.11977 18.6961 9.11977H8.4361C8.1321 9.11977 7.8281 8.89176 7.8281 8.58777V4.93977ZM22.8001 35.7198H4.2561C3.1921 35.7198 2.2801 34.8838 2.2801 33.8958V9.34776C2.2801 8.35977 3.1161 7.52376 4.1801 7.52376H6.2321V8.58777C6.2321 9.72777 7.1441 10.6398 8.3601 10.6398H18.6201C19.7601 10.6398 20.7481 9.72777 20.7481 8.58777V7.52376H22.8001C23.8641 7.52376 24.7001 8.35977 24.7001 9.34776V12.6918C24.1681 12.5398 23.5601 12.3878 22.9521 12.3878C20.2161 12.0838 17.7081 12.9958 15.7321 14.5918H6.6121C6.1561 14.5918 5.8521 14.8958 5.8521 15.3518C5.8521 15.8078 6.1561 16.1118 6.6121 16.1118H14.2881C13.7561 16.7958 13.3761 17.4798 12.9961 18.3158H6.6881C6.2321 18.3158 5.9281 18.6198 5.9281 19.0758C5.9281 19.5318 6.2321 19.8358 6.6881 19.8358H12.6161C12.5401 20.2918 12.3881 20.7478 12.3881 21.2038V22.0398H6.6881C6.2321 22.0398 5.9281 22.3438 5.9281 22.7998C5.9281 23.2558 6.2321 23.5598 6.6881 23.5598H12.3881C12.4641 24.3198 12.6921 25.0038 12.9201 25.7638H6.6881C6.2321 25.7638 5.9281 26.0678 5.9281 26.5238C5.9281 26.9798 6.2321 27.2838 6.6881 27.2838H13.6801C14.1361 28.1198 14.7441 28.8038 15.4281 29.4118H6.6881C6.2321 29.4118 5.9281 29.7158 5.9281 30.1718C5.9281 30.6278 6.2321 30.9318 6.6881 30.9318H17.7081C18.7721 31.4638 19.8361 31.7678 21.0521 31.9198C22.2681 32.0718 23.4841 31.9198 24.7001 31.6158V33.9718C24.7761 34.8078 23.8641 35.7198 22.8001 35.7198ZM35.1121 35.1118C34.2761 35.9478 32.9841 35.9478 32.1481 35.1118L27.2841 30.3238C28.5001 29.5638 29.4881 28.5758 30.2481 27.3598L35.0361 32.1478C35.9481 32.9838 35.9481 34.2758 35.1121 35.1118Z" fill="white"/>
</g>
<defs>
<clipPath id="clip0_528_494">
<rect width="38" height="38" fill="white"/>
</clipPath>
</defs>
</svg>
