<svg width="44" height="44" viewBox="0 0 44 44" fill="none" xmlns="http://www.w3.org/2000/svg">
<g clip-path="url(#clip0_528_504)">
<path d="M43.948 3.28469C43.8527 1.5369 42.4626 0.147028 40.7148 0.0516379C37.1881 -0.141034 30.287 0.0463958 23.688 3.45958C20.324 5.19964 16.7662 8.14979 13.9269 11.5536C13.8919 11.5955 13.8579 11.6377 13.8232 11.6798L7.37959 12.1775C6.31895 12.2595 5.37424 12.8154 4.78763 13.7026L0.39158 20.3518C-0.0533184 21.0247 -0.124045 21.8668 0.20226 22.6044C0.52865 23.3421 1.19931 23.8562 1.99638 23.9796L7.42513 24.8205C7.40597 24.926 7.38672 25.0314 7.3691 25.137C7.18838 26.2181 7.54656 27.3296 8.32739 28.1103L15.8892 35.6722C16.5366 36.3196 17.4113 36.6765 18.3077 36.6765C18.4923 36.6765 18.6779 36.6613 18.8626 36.6304C18.9682 36.6128 19.0736 36.5936 19.1791 36.5744L20.02 42.0032C20.1435 42.8003 20.6575 43.471 21.395 43.7973C21.7019 43.9331 22.0267 44.0002 22.35 44.0002C22.804 44.0001 23.2548 43.8679 23.6477 43.6081L30.2969 39.212C31.1842 38.6253 31.74 37.6806 31.8218 36.62L32.3196 30.1765C32.3616 30.1418 32.4039 30.1078 32.4458 30.0728C35.8497 27.2335 38.8 23.6757 40.5399 20.3116C43.9533 13.7123 44.1404 6.81114 43.948 3.28469ZM28.875 37.0613L22.5147 41.2665L21.6952 35.9757C24.3834 35.1854 27.0425 33.9195 29.5759 32.2237L29.2516 36.4213C29.2314 36.6832 29.0941 36.9165 28.875 37.0613ZM17.7122 33.8492L10.1503 26.2873C9.95737 26.0943 9.86817 25.8232 9.91191 25.562C10.1367 24.2177 10.4861 22.938 10.9185 21.7325L22.2646 33.0786C20.8168 33.5973 19.5199 33.9066 18.4375 34.0876C18.1759 34.1311 17.9051 34.0422 17.7122 33.8492ZM7.57819 14.748L11.7757 14.4237C10.0798 16.9571 8.81397 19.6163 8.0236 22.3044L2.73295 21.485L6.93821 15.1246C7.0831 14.9054 7.31642 14.7682 7.57819 14.748ZM30.7946 28.0929C28.7121 29.8299 26.6906 31.0863 24.8273 31.9955L12.0036 19.1718C13.1945 16.7394 14.648 14.714 15.9066 13.2051C18.5342 10.055 21.8021 7.33759 24.8726 5.74947C30.929 2.61679 37.3099 2.44809 40.5745 2.62581C41.0066 2.64936 41.3503 2.99302 41.3738 3.4252C41.5518 6.68979 41.3827 13.0707 38.2501 19.1271C36.662 22.1975 33.9446 25.4653 30.7946 28.0929Z" fill="white"/>
<path d="M30.14 20.3021C31.7901 20.3019 33.441 19.6737 34.6973 18.4174C35.9147 17.2001 36.585 15.5816 36.585 13.8601C36.585 12.1386 35.9146 10.52 34.6973 9.30271C32.1843 6.78964 28.0954 6.78981 25.5826 9.30271C24.3652 10.52 23.6948 12.1386 23.6948 13.8601C23.6948 15.5816 24.3653 17.2001 25.5826 18.4174C26.8392 19.674 28.4892 20.3023 30.14 20.3021ZM27.4054 11.1256C28.1593 10.3717 29.1495 9.99476 30.1398 9.99476C31.1301 9.99476 32.1204 10.3717 32.8742 11.1256C33.6046 11.856 34.0068 12.8271 34.0068 13.86C34.0068 14.8929 33.6046 15.864 32.8742 16.5944C31.3666 18.1022 28.9131 18.1021 27.4053 16.5944C26.675 15.864 26.2727 14.8929 26.2727 13.8601C26.2727 12.8272 26.6751 11.856 27.4054 11.1256Z" fill="white"/>
<path d="M1.3149 36.2604C1.64481 36.2604 1.97473 36.1346 2.22635 35.8828L6.43497 31.6742C6.93839 31.1708 6.93839 30.3546 6.43497 29.8512C5.93163 29.3478 5.1154 29.3478 4.61198 29.8512L0.403445 34.0598C-0.0999766 34.5632 -0.0999766 35.3794 0.403445 35.8828C0.65507 36.1345 0.984984 36.2604 1.3149 36.2604Z" fill="white"/>
<path d="M10.2919 33.7081C9.78858 33.2047 8.97235 33.2047 8.46893 33.7081L0.377566 41.7996C-0.125855 42.303 -0.125855 43.1191 0.377566 43.6226C0.629277 43.8743 0.959106 44.0001 1.28902 44.0001C1.61893 44.0001 1.94885 43.8743 2.20047 43.6225L10.2918 35.5311C10.7953 35.0277 10.7953 34.2116 10.2919 33.7081Z" fill="white"/>
<path d="M12.3259 37.5651L8.11731 41.7737C7.61389 42.2771 7.61389 43.0933 8.11731 43.5967C8.36902 43.8484 8.69894 43.9743 9.02877 43.9743C9.35859 43.9743 9.68859 43.8485 9.94022 43.5967L14.1488 39.3881C14.6523 38.8846 14.6523 38.0685 14.1488 37.5651C13.6455 37.0616 12.8293 37.0616 12.3259 37.5651Z" fill="white"/>
</g>
<defs>
<clipPath id="clip0_528_504">
<rect width="44" height="44" fill="white"/>
</clipPath>
</defs>
</svg>
