<svg width="42" height="42" viewBox="0 0 42 42" fill="none" xmlns="http://www.w3.org/2000/svg">
<g clip-path="url(#clip0_528_500)">
<path d="M24.1401 9.56711C23.1225 9.2882 22.066 9.14678 21 9.14678C14.4643 9.14678 9.14722 14.4639 9.14722 20.9996C9.14722 27.5352 14.4643 32.8523 21 32.8523C27.5357 32.8523 32.8528 27.5352 32.8528 20.9996C32.8528 19.9336 32.7114 18.8771 32.4324 17.8595C32.2408 17.1604 32.6522 16.4384 33.3513 16.2467C34.0499 16.0552 34.7724 16.4665 34.964 17.1656C35.3049 18.4093 35.4778 19.6992 35.4778 20.9996C35.4778 28.9826 28.983 35.4773 21 35.4773C13.017 35.4773 6.52222 28.9826 6.52222 20.9996C6.52222 13.0165 13.017 6.52178 21 6.52178C22.3004 6.52178 23.5903 6.69462 24.834 7.03554C25.417 7.19534 25.7999 7.72411 25.7998 8.30079C25.7998 8.41555 25.7846 8.5322 25.7528 8.64828C25.5613 9.34735 24.8393 9.75898 24.1401 9.56711ZM39.5077 14.145C38.8127 14.3508 38.416 15.081 38.6218 15.7761C39.1216 17.4643 39.375 19.2217 39.375 20.9996C39.375 31.1316 31.132 39.3746 21 39.3746C10.868 39.3746 2.625 31.1316 2.625 20.9996C2.625 10.8675 10.868 2.62456 21 2.62456C22.7779 2.62456 24.5353 2.87795 26.2232 3.37769C26.9183 3.58359 27.6485 3.18672 27.8543 2.49175C27.891 2.36747 27.9086 2.24221 27.9086 2.11892C27.9088 1.55249 27.5392 1.02971 26.9683 0.86064C25.0383 0.28921 23.0304 -0.000442306 21 -0.000442306C15.3907 -0.000442306 10.1171 2.18397 6.1507 6.15026C2.18441 10.1167 0 15.3903 0 20.9996C0 26.6089 2.18441 31.8825 6.1507 35.8489C10.117 39.8152 15.3907 41.9996 21 41.9996C26.6093 41.9996 31.8828 39.8151 35.8493 35.8489C39.8156 31.8825 42 26.6089 42 20.9996C42 18.9694 41.7103 16.9612 41.1388 15.031C40.9331 14.3359 40.2027 13.9395 39.5077 14.145ZM21 15.7496C21.193 15.7496 21.3879 15.7602 21.5794 15.7812C22.3003 15.8605 22.9482 15.3402 23.0272 14.6197C23.1062 13.8992 22.5862 13.251 21.8657 13.172C21.5794 13.1405 21.2883 13.1246 21 13.1246C16.6577 13.1246 13.125 16.6572 13.125 20.9996C13.125 25.3419 16.6577 28.8746 21 28.8746C25.3423 28.8746 28.875 25.3419 28.875 20.9996C28.875 20.2746 28.2874 19.6871 27.5625 19.6871C26.8376 19.6871 26.25 20.2746 26.25 20.9996C26.25 23.8944 23.8949 26.2496 21 26.2496C18.1051 26.2496 15.75 23.8944 15.75 20.9996C15.75 18.1047 18.1051 15.7496 21 15.7496ZM27.7015 12.4421L28.3552 5.88399C28.3853 5.58228 28.5188 5.30042 28.7332 5.08607L33.4354 0.383956C33.7977 0.0217881 34.3373 -0.0965829 34.8179 0.0806866C35.2984 0.257956 35.6319 0.698628 35.672 1.20927L36.0449 5.95478L40.7903 6.32753C41.3009 6.36764 41.7416 6.70118 41.9189 7.18164C42.0961 7.66218 41.9778 8.20194 41.6156 8.56411L36.9134 13.2662C36.6991 13.4806 36.4172 13.6141 36.1156 13.6441L29.5576 14.2983L21.9281 21.9277C21.6718 22.1839 21.3359 22.3121 21 22.3121C20.664 22.3121 20.3282 22.1839 20.072 21.9276C19.5594 21.415 19.5594 20.584 20.072 20.0715L27.7015 12.4421ZM30.426 11.5737L35.3886 11.0787L37.7458 8.72153L34.7215 8.48397C34.0777 8.43335 33.5664 7.92197 33.5158 7.27827L33.2782 4.2537L30.9209 6.61095L30.426 11.5737Z" fill="white"/>
</g>
<defs>
<clipPath id="clip0_528_500">
<rect width="42" height="42" fill="white"/>
</clipPath>
</defs>
</svg>
