<svg width="47" height="47" viewBox="0 0 47 47" fill="none" xmlns="http://www.w3.org/2000/svg">
<circle cx="23.4985" cy="23.5" r="23" fill="white" stroke="#FAFAFA"/>
<path d="M31.4985 18.8333V20.4999C31.4985 20.7209 31.4107 20.9329 31.2545 21.0892C31.0982 21.2455 30.8862 21.3333 30.6652 21.3333C29.4943 21.3312 28.3447 21.0208 27.3319 20.4333V25.9166C27.3321 26.8787 27.0761 27.8236 26.5901 28.654C26.1042 29.4844 25.4058 30.1704 24.5668 30.6414C23.7278 31.1124 22.7785 31.3514 21.8165 31.3339C20.8545 31.3163 19.9145 31.0429 19.0932 30.5416C18.272 30.0403 17.5991 29.3294 17.1437 28.4818C16.6883 27.6342 16.4669 26.6807 16.5022 25.7192C16.5375 24.7577 16.8283 23.8229 17.3447 23.0111C17.8611 22.1992 18.5844 21.5396 19.4402 21.0999C19.5683 21.0317 19.7119 20.9981 19.857 21.0025C20.002 21.0068 20.1434 21.0489 20.2671 21.1247C20.3909 21.2005 20.4927 21.3072 20.5625 21.4344C20.6323 21.5616 20.6677 21.7048 20.6652 21.8499V23.9499C20.6563 24.1456 20.5728 24.3305 20.4319 24.4666C20.1326 24.7693 19.9337 25.1568 19.8621 25.5764C19.7905 25.996 19.8497 26.4275 20.0316 26.8124C20.2136 27.1972 20.5095 27.5168 20.8792 27.7277C21.249 27.9387 21.6747 28.0308 22.0985 27.9916C22.6308 27.9238 23.1193 27.6617 23.47 27.2556C23.8208 26.8495 24.009 26.3281 23.9985 25.7916V15.4999C23.9985 15.2789 24.0863 15.067 24.2426 14.9107C24.3989 14.7544 24.6109 14.6666 24.8319 14.6666H26.5902C26.7887 14.6637 26.9818 14.7318 27.1345 14.8586C27.2873 14.9854 27.3898 15.1626 27.4235 15.3583C27.5814 16.1024 27.9889 16.7701 28.5786 17.2506C29.1683 17.7312 29.9046 17.9956 30.6652 17.9999C30.8862 17.9999 31.0982 18.0877 31.2545 18.244C31.4107 18.4003 31.4985 18.6122 31.4985 18.8333Z" fill="#181717"/>
</svg>
