<svg width="47" height="47" viewBox="0 0 47 47" fill="none" xmlns="http://www.w3.org/2000/svg">
<circle cx="23.4985" cy="23.5" r="23" fill="white" stroke="#FAFAFA"/>
<g clip-path="url(#clip0_528_294)">
<path fill-rule="evenodd" clip-rule="evenodd" d="M22.1881 26.3277V21.2771C23.9811 22.1208 25.3698 22.9358 27.0121 23.8145C25.6575 24.5657 23.9811 25.4086 22.1881 26.3277ZM32.1804 18.7652C31.8712 18.3577 31.344 18.0405 30.7828 17.9355C29.1333 17.6222 18.8424 17.6213 17.1938 17.9355C16.7437 18.0198 16.343 18.2238 15.9987 18.5406C14.5482 19.8869 15.0027 27.1067 15.3524 28.2762C15.4994 28.7824 15.6895 29.1475 15.9288 29.3872C16.2372 29.704 16.6595 29.9222 17.1445 30.02C18.5026 30.3009 25.4998 30.458 30.7541 30.0622C31.2382 29.9778 31.6667 29.7526 32.0047 29.4223C33.3459 28.0814 33.2544 20.4561 32.1804 18.7652Z" fill="#181717"/>
</g>
<defs>
<clipPath id="clip0_528_294">
<rect width="18" height="18" fill="white" transform="translate(14.9985 15)"/>
</clipPath>
</defs>
</svg>
