<svg width="122" height="122" viewBox="0 0 122 122" fill="none" xmlns="http://www.w3.org/2000/svg">
<g opacity="0.05">
<path d="M93.5321 106.133C109.255 106.133 122 93.3838 122 77.6558C122 61.9333 109.255 49.1843 93.5321 49.1843C93.5321 49.1843 93.6698 38.6065 102.263 23.3823C103.218 20.3318 101.516 17.0833 98.4638 16.1342C96.298 15.453 94.0191 16.1152 92.5475 17.6566C72.788 39.2687 65.0534 64.7048 65.0534 77.6558C65.0534 93.3838 77.7986 106.133 93.5321 106.133Z" fill="#181717"/>
<path d="M28.4788 106.133C44.2014 106.133 56.9468 93.3836 56.9468 77.6558C56.9468 61.9333 44.2014 49.1843 28.4788 49.1843C28.4788 49.1843 28.6166 38.6065 37.2099 23.3823C38.1645 20.3318 36.4627 17.0833 33.4105 16.1342C31.2448 15.453 28.9659 16.1152 27.4945 17.6566C7.73479 39.2687 -5.72205e-05 64.7048 -5.72205e-05 77.6558C-5.72205e-05 93.3838 12.7454 106.133 28.4788 106.133Z" fill="#181717"/>
</g>
</svg>
