<svg width="122" height="122" viewBox="0 0 122 122" fill="none" xmlns="http://www.w3.org/2000/svg">
<g opacity="0.05">
<path d="M28.4679 15.8672C12.7454 15.8672 0 28.6162 0 44.3442C0 60.0667 12.7454 72.8157 28.4679 72.8157C28.4679 72.8157 28.3302 83.3935 19.7368 98.6177C18.7823 101.668 20.4838 104.917 23.5362 105.866C25.702 106.547 27.9809 105.885 29.4525 104.343C49.212 82.7313 56.9466 57.2952 56.9466 44.3442C56.9466 28.6162 44.2014 15.8672 28.4679 15.8672Z" fill="#181717"/>
<path d="M93.5212 15.8672C77.7986 15.8672 65.0532 28.6164 65.0532 44.3442C65.0532 60.0667 77.7986 72.8157 93.5212 72.8157C93.5212 72.8157 93.3834 83.3935 84.7901 98.6177C83.8355 101.668 85.5373 104.917 88.5895 105.866C90.7552 106.547 93.0341 105.885 94.5055 104.343C114.265 82.7313 122 57.2952 122 44.3442C122 28.6162 109.255 15.8672 93.5212 15.8672Z" fill="#181717"/>
</g>
</svg>
